<svg xmlns="http://www.w3.org/2000/svg" width="21" height="20" class="icon icon-cart-empty" viewBox="0 0 21 20" fill="none">
<path d="M19.4553 5.51997C18.9169 4.85401 18.1448 4.48064 16.9521 4.30937C16.5528 4.25204 16.1129 4.21665 15.62 4.19465L13.6735 0.301837C13.5387 0.0322209 13.2108 -0.0770828 12.9411 0.05776C12.6714 0.192533 12.5622 0.520444 12.697 0.79013L14.3841 4.16439C13.8869 4.15919 13.3439 4.15919 12.7465 4.15919H7.38548C6.78823 4.15919 6.24518 4.15919 5.74786 4.16439L7.43503 0.79013C7.56981 0.520444 7.46051 0.192603 7.19089 0.05776C6.92113 -0.0770828 6.59342 0.0322209 6.45851 0.301837L4.51207 4.19472C4.01906 4.21672 3.57928 4.25211 3.17996 4.30944C1.98712 4.48071 1.21512 4.85408 0.676864 5.52004C0.138465 6.18599 -0.0648749 7.01913 0.0175714 8.22126C0.0898854 9.27641 0.367481 10.5718 0.751745 12.365L1.19736 14.4446C1.73 16.93 1.99726 18.1775 3.00528 18.9924C4.0133 19.8072 5.28921 19.8072 7.83116 19.8072H12.301C14.8428 19.8072 16.1188 19.8072 17.1268 18.9923C18.1347 18.1774 18.4021 16.9298 18.9348 14.4444L19.3804 12.365C19.7645 10.572 20.0422 9.27648 20.1145 8.22126C20.197 7.01913 19.9937 6.18606 19.4553 5.51997ZM18.3128 12.1362L17.8673 14.2156C17.3886 16.4497 17.1482 17.5711 16.4404 18.1433C15.7326 18.7154 14.5857 18.7154 12.301 18.7154H7.8311C5.54626 18.7154 4.39937 18.7154 3.69171 18.1433C2.98397 17.5711 2.74371 16.4498 2.26486 14.2156L1.81917 12.1359C1.10957 8.82413 0.753414 7.16181 1.52583 6.20633C1.97311 5.653 2.73157 5.4201 3.94835 5.32204L3.3393 6.54028C3.20452 6.80996 3.31376 7.1378 3.58344 7.27264C3.66186 7.31179 3.74515 7.33045 3.82718 7.33045C4.02746 7.33045 4.22018 7.2199 4.31581 7.02857L5.19774 5.26472C5.83413 5.25084 6.55956 5.25077 7.38555 5.25077H12.7466C13.5725 5.25077 14.298 5.25084 14.9343 5.26472L15.8162 7.02857C15.9119 7.2199 16.1046 7.33045 16.3049 7.33045C16.3869 7.33045 16.4703 7.31192 16.5486 7.27264C16.8183 7.13787 16.9275 6.80996 16.7928 6.54028L16.1837 5.32204C17.4005 5.4201 18.159 5.653 18.6063 6.20633C19.3788 7.16195 19.0226 8.82434 18.3128 12.1362Z" fill="#9C7B5C"></path>
<path d="M14.2251 10.0753H5.90715C5.60568 10.0753 5.36133 10.3196 5.36133 10.6212C5.36133 10.9226 5.60568 11.167 5.90715 11.167H14.2251C14.5266 11.167 14.771 10.9226 14.771 10.6212C14.771 10.3196 14.5266 10.0753 14.2251 10.0753Z" fill="#9C7B5C"></path>
<path d="M12.1458 13.1945H7.98681C7.68527 13.1945 7.44092 13.4388 7.44092 13.7403C7.44092 14.0418 7.68527 14.2862 7.98681 14.2862H12.1458C12.4472 14.2862 12.6916 14.0418 12.6916 13.7403C12.6916 13.4388 12.4472 13.1945 12.1458 13.1945Z" fill="#9C7B5C"></path>
</svg>