<svg xmlns="http://www.w3.org/2000/svg" width="31" height="32" viewBox="0 0 31 32" class="icon icon-mubarak" fill="none">
<path d="M25.4194 10.9879C25.5228 11.0797 25.6731 11.1291 25.859 11.1334C25.8627 11.3263 25.9132 11.4802 26.0077 11.5835C26.0979 11.6822 26.2218 11.7322 26.3759 11.7322H26.3788L26.3817 11.7321C26.5369 11.7251 26.6606 11.67 26.7496 11.5682C26.8396 11.4653 26.8881 11.3166 26.8925 11.1333C27.0435 11.1298 27.2302 11.0969 27.3569 10.9758C27.4514 10.8855 27.4978 10.7593 27.4912 10.6111C27.4842 10.456 27.4291 10.3323 27.3273 10.2433C27.2243 10.1533 27.0756 10.1047 26.8923 10.1003C26.8889 9.94928 26.856 9.76254 26.7348 9.63585C26.6445 9.5414 26.5184 9.49522 26.3701 9.50155C25.9564 9.52006 25.8807 9.86763 25.8669 10.0999C25.7061 10.102 25.5256 10.1367 25.3997 10.2555C25.3042 10.3454 25.2561 10.4717 25.2605 10.6207C25.2652 10.7749 25.3186 10.8984 25.4194 10.9879Z" fill="url(#paint0_linear_2450_1112)"></path>
<path d="M22.1782 5.00028C22.2816 5.09206 22.4319 5.14147 22.6178 5.14579C22.6217 5.33655 22.6717 5.48869 22.7651 5.5908C22.8554 5.68941 22.9797 5.73944 23.1347 5.73944C23.2902 5.73944 23.4146 5.68977 23.5046 5.59188C23.5989 5.4893 23.648 5.33973 23.6515 5.1461C23.8095 5.14312 23.9845 5.10846 24.1058 4.99411C24.1724 4.93144 24.2505 4.81662 24.2449 4.62541C24.2327 4.20986 23.8847 4.13407 23.6518 4.12029C23.6499 3.95859 23.6158 3.77776 23.4982 3.65292C23.4356 3.58644 23.3206 3.50901 23.1309 3.51389C22.7146 3.52613 22.6393 3.87771 22.6256 4.11227C22.4647 4.11443 22.2844 4.14919 22.1584 4.26786C22.063 4.35784 22.0149 4.48412 22.0193 4.63302C22.024 4.78732 22.0774 4.91087 22.1782 5.00028Z" fill="url(#paint1_linear_2450_1112)"></path>
<path d="M30.7644 20.0882C30.6494 20.0143 30.5125 19.9895 30.3787 20.0186C30.2451 20.0477 30.1308 20.1272 30.0586 20.2397C27.2348 24.411 22.2229 26.4474 17.2919 25.4274C10.0897 23.8382 7.48758 17.9305 7.44763 13.3544C7.4082 8.83341 9.85653 2.96348 16.8697 1.20865V3.62932C16.2976 3.86065 15.9443 4.44859 16.0067 5.06101C14.4909 5.55918 13.355 6.86515 13.0711 8.43494C13.0395 8.43427 13.0078 8.43484 12.9762 8.43669C12.6596 8.45514 12.3692 8.59577 12.1584 8.83264C11.9477 9.06952 11.8419 9.37431 11.8603 9.69083C11.8958 10.2983 12.3847 10.7738 12.9784 10.8069V17.5585C12.3868 17.6072 11.9122 18.0954 11.8944 18.7025C11.8756 19.3541 12.3903 19.8997 13.0457 19.9188H13.4271C13.7572 20.5619 14.2816 21.4085 15.0936 21.7008L15.1147 21.7083H19.6371L19.6569 21.7018C20.4698 21.4308 20.9984 20.5728 21.3317 19.9187L21.7114 19.9187C22.0271 19.9094 22.3203 19.7779 22.5371 19.5482C22.7538 19.3184 22.8681 19.018 22.8589 18.7024C22.8411 18.0953 22.3666 17.607 21.7749 17.5584V10.8067C21.8025 10.8052 21.8301 10.8027 21.8575 10.7992C22.1721 10.7593 22.4522 10.5993 22.6464 10.3486C22.8406 10.098 22.9256 9.78677 22.8856 9.47226C22.8084 8.86447 22.2812 8.42029 21.6822 8.43494C21.3984 6.86525 20.2625 5.55938 18.7468 5.06111C18.8098 4.45039 18.4585 3.86265 17.8887 3.62973L17.8887 0.556331C17.8859 0.427688 17.8348 0.306038 17.745 0.213848L17.6676 0.145619L17.6295 0.140375C13.7359 -0.395228 9.8077 0.612684 6.56879 2.97881C3.35774 5.32457 1.15158 8.75439 0.357044 12.6345C-0.660328 17.215 0.520174 22.0116 3.59579 25.7945C5.06855 27.6058 6.93379 29.0992 8.98992 30.1133C11.1134 31.1605 13.3725 31.6908 15.7088 31.6908C15.7757 31.6908 15.8432 31.6904 15.9102 31.6896C19.2861 31.6894 22.5116 30.6366 25.2373 28.6449C27.9635 26.653 29.9467 23.9 30.9717 20.6862C31.0491 20.4622 30.9638 20.2163 30.7644 20.0882ZM9.48455 4.63595C8.06479 6.33335 7.08146 8.37679 6.64062 10.5458C6.03102 13.611 6.41665 16.6237 7.75573 19.2584C8.99342 21.6936 10.9589 23.6893 13.4395 25.0298C15.9193 26.3698 18.6652 26.9209 21.3802 26.6239C24.0696 26.3296 26.5826 25.1947 28.6922 23.3292C26.2541 27.6246 21.8183 30.3262 16.6779 30.603C11.2726 30.8947 6.34348 28.4222 3.49348 23.9881C0.545381 19.6075 0.229741 14.0921 2.64923 9.23436C4.94358 4.62783 9.17786 1.63252 14.0796 1.10304C12.3138 1.92837 10.7367 3.13892 9.48455 4.63595ZM15.3087 20.6843C15.0303 20.4673 14.7914 20.2105 14.5962 19.9187H20.1668C19.9701 20.2105 19.7298 20.4673 19.4502 20.6843H15.3087ZM13.051 18.8946C12.9642 18.8945 12.8935 18.8238 12.8935 18.7372C12.8934 18.6502 12.9642 18.5792 13.0509 18.579H21.7129L21.7129 19.0232V18.8947L13.051 18.8946ZM17.0566 4.85041C17.0927 4.69215 17.2276 4.56906 17.3959 4.5541C17.4012 4.55446 17.4065 4.55492 17.412 4.55553C17.5136 4.56679 17.6047 4.61698 17.6686 4.69683C17.7052 4.74259 17.7304 4.79493 17.743 4.85041C17.6289 4.84151 17.5144 4.83704 17.3998 4.83704C17.2853 4.83704 17.1707 4.84146 17.0566 4.85041ZM16.5797 11.2299C16.5794 11.2231 16.5791 11.2163 16.5791 11.2097C16.5794 10.9988 16.7512 10.8273 16.9621 10.8273C16.9623 10.8273 16.9625 10.8273 16.9626 10.8273H17.7819C17.9974 10.8413 18.1669 11.0205 18.1686 11.2357V17.1727C18.1693 17.3698 18.0171 17.5367 17.8212 17.5549H16.9473L16.9438 17.555C16.8427 17.5501 16.7494 17.5066 16.6808 17.4321C16.6115 17.3568 16.5756 17.2592 16.5798 17.1571L16.5799 11.2357L16.5797 11.2299ZM14.1351 8.44306C14.5474 6.68216 16.0438 5.88845 17.3765 5.88531C17.3792 5.88531 17.3818 5.88531 17.3845 5.88531C18.7202 5.88531 20.2212 6.67697 20.6431 8.44306H14.1351ZM15.5829 11.2352C15.5915 11.3059 15.5863 11.9251 15.5804 12.6422C15.5728 13.5553 15.5623 14.8058 15.572 15.8172C15.5819 16.8596 15.6087 17.3313 15.6425 17.5549H14.0078L14.0028 10.8069H15.639C15.6004 10.9392 15.5811 11.076 15.5813 11.2154L15.5809 11.2241L15.5829 11.2352ZM19.1881 12.7466C19.1816 12.0201 19.1755 11.3338 19.1851 11.2609L19.1875 11.2395C19.1919 11.0938 19.1726 10.947 19.1314 10.8069H20.7611V17.5549H19.1262C19.1594 17.338 19.1875 16.8789 19.1974 15.857C19.2069 14.8739 19.1965 13.6944 19.1881 12.7466Z" fill="url(#paint2_linear_2450_1112)"></path>
<path d="M10.9549 12.3249C10.9519 12.1668 10.9173 11.9917 10.8028 11.8703C10.7401 11.8037 10.6249 11.7258 10.4342 11.7312C10.2749 11.7359 10.1485 11.7907 10.0584 11.894C9.96875 11.9967 9.92159 12.1438 9.91928 12.3245C9.7601 12.3276 9.584 12.3627 9.46163 12.4779C9.39515 12.5406 9.31699 12.6552 9.32255 12.8453C9.32712 13.0009 9.38049 13.1252 9.48111 13.2146C9.58497 13.3067 9.73187 13.3549 9.91923 13.3585C9.92077 13.511 9.95363 13.6805 10.0646 13.804C10.1545 13.904 10.2836 13.9569 10.438 13.9569H10.4399L10.4418 13.9568C10.596 13.9522 10.7196 13.8988 10.809 13.798C10.9008 13.6946 10.9502 13.5443 10.9546 13.3582C11.1119 13.355 11.2865 13.3197 11.4091 13.2042C11.5045 13.1142 11.5527 12.9875 11.5482 12.8377C11.5436 12.6826 11.4902 12.5586 11.3895 12.4691C11.2873 12.3785 11.1388 12.3295 10.9549 12.3249Z" fill="url(#paint3_linear_2450_1112)"></path>
<defs>
<linearGradient id="paint0_linear_2450_1112" x1="27.0964" y1="9.60982" x2="25.8843" y2="11.6202" gradientUnits="userSpaceOnUse">
<stop stop-color="#D9A559"></stop>
<stop offset="1" stop-color="#6D3816"></stop>
</linearGradient>
<linearGradient id="paint1_linear_2450_1112" x1="23.8508" y1="3.62225" x2="22.6417" y2="5.62772" gradientUnits="userSpaceOnUse">
<stop stop-color="#D9A559"></stop>
<stop offset="1" stop-color="#6D3816"></stop>
</linearGradient>
<linearGradient id="paint2_linear_2450_1112" x1="25.5073" y1="1.5459" x2="8.11595" y2="29.7585" gradientUnits="userSpaceOnUse">
<stop stop-color="#D9A559"></stop>
<stop offset="1" stop-color="#6D3816"></stop>
</linearGradient>
<linearGradient id="paint3_linear_2450_1112" x1="11.154" y1="11.8395" x2="9.94484" y2="13.8451" gradientUnits="userSpaceOnUse">
<stop stop-color="#D9A559"></stop>
<stop offset="1" stop-color="#6D3816"></stop>
</linearGradient>
</defs>
</svg>