<svg xmlns="http://www.w3.org/2000/svg" class="icon icon-delivery" width="12" height="14" viewBox="0 0 12 14" fill="none">
<path fill-rule="evenodd" clip-rule="evenodd" d="M6 4C4.89543 4 4 4.89544 4 6C4 7.10457 4.89543 8 6 8C7.10457 8 8 7.10457 8 6C8 4.89544 7.10457 4 6 4Z" fill="currentColor"></path>
<path fill-rule="evenodd" clip-rule="evenodd" d="M1.75735 10.0281C-0.585786 7.73404 -0.585785 4.01461 1.75736 1.72055C4.1005 -0.573527 7.89947 -0.573527 10.2426 1.72055C12.5858 4.01461 12.5858 7.73404 10.2426 10.0281L6.31723 13.8713C6.142 14.0429 5.85798 14.0429 5.68275 13.8713L1.75735 10.0281ZM2.3918 2.3417C0.399049 4.29272 0.399049 7.45593 2.3918 9.40696L6.00001 12.9396L9.60817 9.40696C11.6009 7.45597 11.6009 4.29272 9.60817 2.3417C7.61545 0.390684 4.38454 0.390684 2.3918 2.3417Z" fill="#BE6D43"></path>
</svg>