<svg xmlns="http://www.w3.org/2000/svg" width="21" height="21" class="icon icon-account" viewBox="0 0 21 21" fill="none">
<path d="M10.1981 4.57764e-05C7.47401 4.57764e-05 4.91296 1.06109 2.9863 2.98734C1.06026 4.91365 0.00012207 7.47469 0.00012207 10.1984C0.00012207 12.9222 1.06117 15.4832 2.98783 17.4098C4.91366 19.3359 7.47408 20.396 10.1981 20.396C12.9223 20.396 15.4833 19.335 17.41 17.4083C19.336 15.4824 20.3961 12.9221 20.3961 10.198C20.39 4.58074 15.8149 0.00615291 10.1981 4.57764e-05ZM16.6492 16.6478C14.9258 18.3712 12.6349 19.3204 10.1981 19.3204C7.76139 19.3204 5.47108 18.372 3.74831 16.6492C3.7118 16.6127 3.67612 16.5755 3.64024 16.5385L3.63962 16.5404L3.61395 16.5115C1.97585 14.8046 1.07574 12.5707 1.07574 10.1984C1.07574 7.76194 2.02408 5.47107 3.74699 3.74795C5.47038 2.02491 7.76132 1.0758 10.198 1.0758C11.6982 1.0774 13.1152 1.44362 14.3652 2.09C14.4216 2.11901 14.4777 2.14879 14.5336 2.17904C14.5354 2.18008 14.5374 2.18099 14.5392 2.18203C15.1471 2.51174 15.72 2.9119 16.2454 3.37812C17.2773 4.29385 18.072 5.40639 18.5936 6.64072C19.06 7.73452 19.319 8.93686 19.3204 10.1981C19.3204 12.6349 18.372 14.925 16.6492 16.6478Z" fill="#9C7B5C"></path>
<path d="M12.744 11.9495L12.2521 11.7451L12.6562 11.3981C12.8015 11.2732 12.938 11.1364 13.0618 10.9919C13.7188 10.2278 14.0385 9.25239 13.9625 8.2452C13.885 7.23912 13.421 6.32312 12.6563 5.66604C11.9719 5.07858 11.0987 4.75504 10.1976 4.75504C9.09302 4.75504 8.04794 5.23507 7.33035 6.07196C6.67411 6.83618 6.35486 7.81173 6.43161 8.81892C6.5083 9.82604 6.97147 10.742 7.73583 11.3981L8.1401 11.7451L7.64819 11.9495C6.0892 12.5972 4.84841 13.794 4.14783 15.3241C4.27226 15.4672 4.40162 15.6059 4.533 15.7373C4.62023 15.8245 4.71259 15.9125 4.80878 15.9999C5.16383 15.0872 5.7452 14.278 6.49686 13.6525C7.53619 12.7888 8.84823 12.3131 10.1915 12.3131C10.5288 12.3131 10.8664 12.3425 11.1948 12.4004C12.3723 12.6063 13.4416 13.1621 14.2871 14.0075C14.8602 14.5805 15.297 15.25 15.5872 15.9993C15.6831 15.9121 15.7757 15.8239 15.8635 15.7361C15.9939 15.6057 16.1221 15.4683 16.2451 15.3272C15.5449 13.7958 14.3039 12.5978 12.744 11.9495ZM10.1976 11.4426C9.42204 11.4426 8.69236 11.1399 8.14286 10.5903C7.59329 10.0407 7.29091 9.31103 7.29126 8.53577C7.29126 6.93307 8.59501 5.62905 10.1976 5.62905C10.9739 5.6294 11.7042 5.93191 12.2537 6.48072C12.8025 7.03078 13.1048 7.761 13.1048 8.53695C13.1023 10.1384 11.7982 11.4418 10.1976 11.4426Z" fill="#9C7B5C"></path>
</svg>