<svg xmlns="http://www.w3.org/2000/svg" width="10" height="16" class="icon icon-left" viewBox="0 0 12 20" fill="currentColor">
<path d="M0.00139899 10.2204C0.0145438 9.82352 0.173036 9.44529 0.446757 9.1576L8.22026 1.06016C8.51824 0.750104 8.92718 0.571115 9.35713 0.562574C9.78708 0.554032 10.2028 0.716674 10.5129 1.01465C10.8229 1.31263 11.0019 1.72155 11.0104 2.15149C11.019 2.58144 10.8564 2.99718 10.5584 3.30723L3.86792 10.2811L10.5584 17.255C10.8564 17.5651 11.019 17.9808 11.0105 18.4108C11.0019 18.8407 10.8229 19.2497 10.5129 19.5476C10.2028 19.8456 9.78708 20.0082 9.35713 19.9997C8.92719 19.9911 8.51824 19.8121 8.22026 19.5021L0.446757 11.4047C0.296851 11.2473 0.180165 11.0613 0.103652 10.8578C0.0271389 10.6544 -0.00763634 10.4376 0.00139899 10.2204Z" fill="currentColor"></path>
</svg>