<svg xmlns="http://www.w3.org/2000/svg" viewBox="0 0 24 24"><path fill="#FFFFFF" fill-rule="evenodd" d="M11.903 3.994c-4.375 0-7.922 3.57-7.922 7.974s3.547 7.974 7.922 7.974a7.843 7.843 0 0 0 4.15-1.18l.387-.24 3.092.995-1.003-3.154.223-.383a7.972 7.972 0 0 0 1.074-4.012c0-4.404-3.547-7.974-7.923-7.974ZM2 11.968C2 6.463 6.434 2 11.903 2c5.47 0 9.904 4.463 9.904 9.968a9.982 9.982 0 0 1-1.126 4.62l1.265 3.98c.27.848-.525 1.65-1.369 1.378l-3.887-1.25a9.813 9.813 0 0 1-4.787 1.24C6.433 21.936 2 17.473 2 11.968Z" clip-rule="evenodd"></path></svg>