<svg xmlns="http://www.w3.org/2000/svg" width="10" height="16" viewBox="0 0 10 16" class="icon icon-right-arrow" fill="none">
<path d="M9.49886 8.04998C9.48811 8.37667 9.35856 8.68801 9.13483 8.92482L2.78091 15.5902C2.53735 15.8454 2.20308 15.9927 1.85165 15.9997C1.50022 16.0068 1.16041 15.8729 0.906977 15.6276C0.653542 15.3823 0.507243 15.0457 0.500262 14.6918C0.493281 14.3379 0.626192 13.9957 0.869755 13.7405L6.33844 7.99999L0.869754 2.25951C0.626191 2.00429 0.49328 1.66208 0.50026 1.30817C0.507241 0.954263 0.653541 0.617636 0.906976 0.372357C1.16041 0.127078 1.50022 -0.00676567 1.85165 0.000264237C2.20308 0.00729414 2.53735 0.154628 2.78091 0.409849L9.13483 7.07516C9.25736 7.20474 9.35274 7.35782 9.41528 7.5253C9.47782 7.69278 9.50624 7.87121 9.49886 8.04998Z" fill="#A4722C"></path>
</svg>