<svg xmlns="http://www.w3.org/2000/svg" width="21" height="21" class="icon icon-corporate" viewBox="0 0 21 21" fill="none">
<path d="M19.062 3.89282H16.1718C16.4349 3.55429 16.6075 3.1463 16.6612 2.69812C16.7652 1.83201 16.4104 1.00242 15.7125 0.479214C14.6653 -0.306385 13.1603 -0.104919 12.3576 0.928366L10.3037 3.56887L8.24997 0.928574C7.4473 -0.104434 5.9419 -0.306038 4.89515 0.479353C4.1972 1.00255 3.8425 1.83215 3.94639 2.69826C4.00031 3.1463 4.17249 3.55423 4.43586 3.89303L1.54566 3.89282C0.693297 3.89282 0 4.58605 0 5.43842V8.52953C0 8.81399 0.230895 9.04468 0.515293 9.04468H1.03037V18.8332C1.03037 19.6858 1.72353 20.3789 2.57589 20.3789H18.0317C18.8842 20.3789 19.5773 19.6858 19.5773 18.8332V9.04475H20.0925C20.3771 9.04475 20.6077 8.81386 20.6077 8.5296V5.43849C20.6077 4.58605 19.9144 3.89282 19.062 3.89282ZM13.1709 1.56087C13.6309 0.969173 14.4938 0.853832 15.094 1.30319C15.4943 1.60327 15.6976 2.07907 15.6377 2.57549C15.5785 3.07211 15.2683 3.48614 14.8088 3.68296L14.3191 3.89262H11.3569L13.1709 1.56087ZM5.79866 3.68359C5.33875 3.48642 5.02887 3.07259 4.9694 2.57597C4.90992 2.07935 5.11313 1.60383 5.51315 1.30368C6.11324 0.85397 6.97594 0.969103 7.43627 1.56136L9.25002 3.89331H6.28771L5.79866 3.68359ZM1.03037 5.43842C1.03037 5.15436 1.2614 4.92333 1.54545 4.92333H6.18084C6.18139 4.92333 6.18153 4.92347 6.18208 4.92347C6.18264 4.92347 6.18326 4.92333 6.18389 4.92333H7.7281V8.01438H1.03058L1.03037 5.43842ZM2.57582 19.3487C2.29177 19.3487 2.06074 19.1175 2.06074 18.8334V9.04482H7.72788V19.3487H2.57582ZM8.75833 19.3487V4.92326H11.8494V19.3487H8.75833ZM18.5469 18.8334C18.5469 19.1175 18.3159 19.3487 18.0317 19.3487H12.8799V9.04482H18.5469V18.8334ZM19.5773 8.01452H12.8799V4.9234H14.4239C14.4244 4.9234 14.425 4.92361 14.4256 4.92361C14.4262 4.92361 14.4265 4.9234 14.427 4.9234H19.0624C19.3464 4.9234 19.5775 5.1545 19.5775 5.43855L19.5773 8.01452Z" fill="#9C7B5C"></path>
</svg>