<svg xmlns="http://www.w3.org/2000/svg" fill="none" viewBox="0 0 24 24"><path fill="#FFFFFF" fill-rule="evenodd" d="M19.683 5.386c-1.717-1.848-4.468-1.848-6.185 0L12 6.998l-1.498-1.612c-1.717-1.848-4.468-1.848-6.185 0-1.75 1.884-1.756 4.962-.019 6.854L12 19.615l7.702-7.375c1.737-1.892 1.73-4.97-.02-6.854Zm-7.65-1.361c2.508-2.7 6.607-2.7 9.115 0 2.47 2.658 2.47 6.939 0 9.597l-.02.021-8.09 7.748a1.5 1.5 0 0 1-2.075 0l-8.091-7.748-.02-.021c-2.47-2.658-2.47-6.94 0-9.597 2.508-2.7 6.607-2.7 9.116 0L12 4.06l.032-.035Z" clip-rule="evenodd"></path></svg>