<svg class="icon icon-pinterest" width="19" height="26" viewBox="0 0 19 26" fill="none" xmlns="http://www.w3.org/2000/svg">
<path fill-rule="evenodd" clip-rule="evenodd" d="M7.87882 17.247C7.2587 20.2859 6.53526 23.3967 4.16497 26C4.06191 25.2886 3.95248 24.7655 3.91562 24.2367C3.7794 22.2833 3.96753 20.3685 4.45105 18.4678C4.96009 16.4667 5.43391 14.4494 5.78045 12.4126C5.90213 11.6971 5.56146 10.9056 5.50126 10.1428C5.38774 8.70509 5.65929 7.37652 6.73755 6.37036C7.41265 5.74043 8.20955 5.56903 9.04828 5.94392C9.88077 6.316 10.2112 7.11129 10.1191 7.96765C10.0013 9.06508 9.70386 10.1424 9.46242 11.223C9.34125 11.7649 9.17442 12.2954 9.02469 12.83C8.7344 13.867 8.7659 14.8302 9.64315 15.5653C10.41 16.2075 11.6505 16.2726 12.5752 15.6392C13.0797 15.2934 13.5798 14.8528 13.9142 14.3349C15.3114 12.1727 15.7615 9.73232 15.3959 7.1839C15.0445 4.73428 13.5955 3.22249 11.2834 2.77444C9.0391 2.33941 6.90629 2.68706 5.12462 4.3124C3.22369 6.04661 2.52321 8.28617 2.96184 10.8745C3.06082 11.4589 3.44587 11.9999 3.74318 12.5339C3.99202 12.9809 3.84981 14.6297 3.44753 14.899C3.29091 15.0038 2.99003 14.992 2.80573 14.9088C1.73868 14.4263 1.02239 13.5678 0.577899 12.4536C-0.665281 9.3373 0.137869 5.59775 2.59655 3.02356C6.05123 -0.593834 12.1805 -1.04483 15.9788 2.10116C18.0143 3.78704 19.0398 6.0262 18.9988 8.79677C18.9612 11.3444 18.4281 13.7278 16.9195 15.7579C15.2678 17.9803 13.1015 19.109 10.3954 18.5239C9.53219 18.3374 8.75557 17.7063 7.87882 17.247Z" fill="#D73532"></path>
</svg>