<svg xmlns="http://www.w3.org/2000/svg" width="28" height="32" class="icon icon-hajj" viewBox="0 0 28 32" fill="none">
<path d="M27.924 6.31767C27.902 6.27986 27.8751 6.24491 27.8418 6.21151C27.8 6.171 27.7532 6.1359 27.7027 6.10711L27.6952 6.1028L14.2342 0.050474C14.086 -0.0169249 13.9132 -0.0166243 13.7663 0.0501737L0.327978 6.09409L0.32224 6.09685C0.12371 6.19469 0.000250037 6.39313 0 6.61491V25.3861C0.00220032 25.6095 0.135721 25.8115 0.336451 25.8992L3.69817 27.4587L7.05787 28.9658L10.4119 30.4677L13.807 31.9959H13.8844C13.9057 31.9987 13.9272 32 13.9486 32C13.9754 32 14.0024 31.9979 14.0288 31.9936L14.1653 31.9717L14.1678 31.9497H14.1982L17.5929 30.4216L20.9475 28.9196L24.3074 27.4122L27.6599 25.9009C27.8643 25.8115 27.9978 25.6095 28 25.3844V6.59287C27.9992 6.49583 27.9727 6.40034 27.924 6.31767ZM26.8405 23.7414V25.0047L24.6352 26.0029V24.7307L26.8405 23.7414ZM23.4758 25.2536V26.5479L21.2705 27.5459V26.243L23.4758 25.2536ZM20.1317 26.7675V28.0445L17.9263 29.0382V27.77L20.1317 26.7675ZM10.0581 27.765V29.0432L7.85279 28.0497V26.767L10.0581 27.765ZM6.68311 26.2577V27.5202L4.47785 26.5221V25.2551L6.68311 26.2577ZM3.32869 24.7405V26.008L1.12341 25.0098V23.7423L3.32869 24.7405ZM1.13366 9.26454V7.48258L13.433 13.0284V14.7954L1.13366 9.26454ZM1.13366 11.2497V10.5068L13.433 16.0376V16.7455L1.13366 11.2497ZM13.4125 29.2722V30.5545L11.2072 29.552V28.274L13.4125 29.2722ZM10.4041 26.6657L1.13366 22.4943V12.4771L13.4228 18.0128V28.0149L10.3991 26.6557L10.4041 26.6657ZM26.0498 6.60469L13.9999 12.0273L1.94997 6.60469L13.9999 1.18699L26.0498 6.60469ZM26.8662 7.48258V9.26469L14.5668 14.8105V13.0284L26.8662 7.48258ZM26.8662 10.5068V11.2497L14.5668 16.7455V16.0376L26.8662 10.5068ZM16.7721 28.2739V29.5469L14.5668 30.5494V29.2715L16.639 28.3182H16.6743L16.7721 28.2739ZM21.255 19.6263C21.2527 19.5725 21.2431 19.5194 21.2261 19.4685C21.1479 19.2342 20.9298 19.0769 20.6834 19.0769C20.6219 19.0769 20.561 19.0869 20.5023 19.1065L20.4937 19.1094L16.2683 21.011C16.0637 21.1025 15.9307 21.3067 15.9296 21.532V27.4169L14.5668 28.0302V17.9975L26.8662 12.4766V22.4939L21.2552 24.9963V19.6339L21.255 19.6263Z" fill="url(#paint0_linear_2450_1123)"></path>
<defs>
<linearGradient id="paint0_linear_2450_1123" x1="14" y1="0" x2="14" y2="32" gradientUnits="userSpaceOnUse">
<stop stop-color="#D9A559"></stop>
<stop offset="1" stop-color="#6D3816"></stop>
</linearGradient>
</defs>
</svg>