<svg xmlns="http://www.w3.org/2000/svg" width="30" height="26" class="icon icon-thankyou" viewBox="0 0 30 26" fill="none">
<path d="M21.0065 0C18.841 0 16.7515 0.783509 15.1232 2.20621L14.9999 2.31385L14.8767 2.20621C13.2484 0.783509 11.159 0 8.9934 0C6.59018 0 4.33056 0.943032 2.63075 2.65538C0.934074 4.36495 -0.000208941 6.64162 3.50494e-08 9.06597C0.000209011 11.4902 0.934746 13.7668 2.6315 15.4763L11.7152 24.629C12.5926 25.5131 13.7592 26 15 26C16.2408 26 17.4074 25.5131 18.2848 24.629L27.3692 15.4763C29.0659 13.7667 30.0002 11.49 30 9.06563C29.9998 6.6414 29.0652 4.36483 27.3684 2.65534C25.6698 0.943033 23.4104 0 21.0065 0ZM17.9499 23.5341L17.5736 23.9132C16.886 24.6061 15.9718 24.9877 14.9996 24.9877H14.6097L14.6251 24.9682C13.7942 24.8831 13.024 24.5159 12.4259 23.9128L3.34152 14.7601C2.39273 13.8038 1.69437 12.6119 1.32198 11.3132L1.25256 11.0711H16.531L16.1166 11.4081C15.3208 12.0552 14.5777 12.8397 13.9078 13.7397C13.8271 13.848 13.7931 13.9812 13.8121 14.1149C13.831 14.2488 13.9007 14.3673 14.0082 14.4485C14.0957 14.5149 14.1994 14.5498 14.3087 14.5498C14.4687 14.5498 14.6153 14.476 14.711 14.3473C15.8162 12.8628 16.9261 12.0018 17.6626 11.5409L17.9499 11.361V23.5341ZM17.9503 7.99761L17.6266 7.65801C16.9881 6.9882 16.209 6.64856 15.3108 6.64856C14.1008 6.64856 13.1164 7.64049 13.1164 8.8597C13.1164 9.16817 13.189 9.48061 13.3321 9.78829L13.4577 10.0582H1.06536L1.04818 9.88793C0.803172 7.46189 1.63921 5.08647 3.3419 3.37084L3.66297 3.04733V3.06472C5.13035 1.73812 7.00654 1.0126 8.99344 1.0126C11.1281 1.0126 13.1352 1.85023 14.645 3.37113C14.7334 3.46024 14.8629 3.51133 15.0002 3.51133C15.1375 3.51133 15.267 3.46024 15.3553 3.37117C16.0234 2.69813 16.8068 2.1515 17.6839 1.74646L17.9503 1.62345L17.9503 7.99761ZM28.678 11.3137C28.3057 12.6123 27.6071 13.8042 26.658 14.7605L26.337 15.084V15.0836L18.9552 22.5215V11.3444L19.2389 11.5131C19.8772 11.8925 20.7855 12.5676 21.4875 13.6289C21.5808 13.7702 21.7371 13.8545 21.9056 13.8545C22.0047 13.8545 22.1012 13.825 22.1844 13.7692C22.2961 13.6943 22.372 13.58 22.3984 13.4473C22.4247 13.3146 22.3982 13.1797 22.3238 13.0674C21.9169 12.4524 21.4163 11.8937 20.8361 11.4066L20.4368 11.0715H28.7475L28.678 11.3137ZM28.9514 9.88826L28.9342 10.0585H23.4486L23.5742 9.78858C23.7166 9.48242 23.7889 9.16998 23.7889 8.85999C23.7889 7.64078 22.8044 6.64886 21.5944 6.64886C20.6959 6.64886 19.9167 6.98846 19.2786 7.65826L18.9549 7.99811V1.28739L19.0984 1.25214C19.7438 1.09338 20.3858 1.01298 21.0062 1.01298C23.0816 1.01298 25.036 1.80432 26.5299 3.24509L26.5314 3.24374L26.6585 3.37105C28.3611 5.08706 29.1968 7.46248 28.9514 9.88826Z" fill="url(#paint0_linear_2450_1109)"></path>
<defs>
<linearGradient id="paint0_linear_2450_1109" x1="15" y1="0" x2="15" y2="26" gradientUnits="userSpaceOnUse">
<stop stop-color="#D9A559"></stop>
<stop offset="1" stop-color="#6D3816"></stop>
</linearGradient>
</defs>
</svg>