<svg xmlns="http://www.w3.org/2000/svg" width="135" height="126" class="icon icon-thoughtful line-path" viewBox="0 0 135 126" stroke="#DEA85F" fill="none">
<circle opacity="0.8" cx="40.851" cy="41.2874" r="40.851" fill="white" stroke="white"></circle>
<path d="M134.462 124.589C134.418 124.463 134.336 124.353 134.248 124.27C133.862 123.907 133.202 123.907 132.838 124.27C132.75 124.375 132.69 124.463 132.624 124.589C132.58 124.716 132.536 124.848 132.536 124.975C132.536 125.234 132.64 125.487 132.833 125.679C133.026 125.85 133.279 125.977 133.538 125.977C133.796 125.977 134.05 125.872 134.242 125.679C134.413 125.487 134.54 125.234 134.54 124.975C134.545 124.843 134.523 124.716 134.462 124.589Z"></path>
<path d="M131.303 123.968H131.132C131.815 123.092 132.266 121.98 132.266 120.786V108.377L132.261 65.116V51.2369C132.261 51.1708 132.239 51.0882 132.239 51.0222V50.9781C132.217 50.8735 132.172 50.7855 132.112 50.7029L132.046 50.6368C132.002 50.5708 131.958 50.5322 131.897 50.4882C131.875 50.4661 131.853 50.4441 131.809 50.4221C131.787 50.4001 131.765 50.3781 131.743 50.3781C131.699 50.356 131.655 50.334 131.616 50.312C131.594 50.29 131.572 50.29 131.528 50.268C131.424 50.2459 131.336 50.2239 131.231 50.2239L110.2 50.2349C109.6 40.518 101.53 32.7883 91.6855 32.7883C85.7893 32.7883 80.5592 35.5631 77.1464 39.8572L76.1225 40.4958L73.4083 38.7671C73.089 38.5524 72.6596 38.5524 72.3403 38.7671L69.6261 40.4737L66.9119 38.7671C66.5926 38.5524 66.1632 38.5524 65.8439 38.7671L63.3885 40.3251V31.6101C63.3885 20.7426 54.5469 11.9015 43.6798 11.9015C32.8123 11.9015 23.9712 20.743 23.9712 31.6101V40.3251L21.5158 38.7671C21.1965 38.5524 20.7671 38.5524 20.4478 38.7671L17.7336 40.4737L15.0194 38.7671C14.7001 38.5524 14.2707 38.5524 13.9514 38.7671L11.2372 40.4958L8.52305 38.7671C8.22576 38.5744 7.81836 38.5524 7.49906 38.723C7.17975 38.8937 6.98706 39.235 6.98706 39.5984V119.635C6.98706 121.303 7.6477 122.817 8.69367 123.929L8.40738 123.924C7.85134 123.924 7.4054 124.37 7.4054 124.926C7.4054 125.482 7.85134 125.928 8.40738 125.928H13.3402L73.8994 125.933H131.303C131.859 125.933 132.305 125.487 132.305 124.931C132.305 124.375 131.837 123.968 131.303 123.968ZM80.3722 64.1132V52.2381H103.049V64.1132H80.3722ZM80.3722 78.7636C82.8937 75.1962 87.0116 72.8674 91.6911 72.8674C99.3381 72.8674 105.57 79.1049 105.57 86.7464C105.57 94.3934 99.3326 100.625 91.6911 100.625C87.0171 100.625 82.8935 98.2968 80.3722 94.7292V78.7636ZM80.3942 50.2563C80.9723 44.5307 85.817 40.0273 91.6912 40.0273C97.5654 40.0273 102.41 44.5142 102.988 50.2563H80.3942ZM80.3722 97.8507C83.257 100.796 87.2484 102.635 91.6911 102.635C100.445 102.635 107.558 95.5219 107.558 86.7681C107.558 78.0147 100.445 70.9014 91.6911 70.9014C87.2484 70.9014 83.2569 72.7402 80.3722 75.6855V66.1613H130.257V107.374H80.3722V97.8507ZM130.257 63.2605L121.735 57.5569L130.257 52.9214V63.2605ZM120.793 59.3296L127.967 64.1359H120.793V59.3296ZM119.323 56.577C119.235 56.621 119.175 56.6816 119.109 56.7256C119.087 56.7477 119.087 56.7697 119.064 56.7917C119.02 56.8358 118.976 56.8798 118.96 56.9404C118.938 56.9624 118.938 57.0064 118.916 57.0284C118.894 57.0725 118.872 57.1165 118.85 57.1771V57.1991C118.85 57.2211 118.85 57.2652 118.828 57.2872C118.828 57.3312 118.806 57.3753 118.806 57.4138V57.4358V57.4579V64.1194H110.283V52.2443H127.323L119.323 56.577ZM91.6869 34.7924C100.826 34.7924 108.279 42.2245 108.279 51.3637V64.1142H105.053V51.3637C105.053 43.9975 99.0744 38.0187 91.7082 38.0187C86.9461 38.0187 82.7619 40.5402 80.3892 44.3169V39.6428C80.3892 39.5382 80.3672 39.4502 80.3452 39.3456C83.2961 36.5433 87.2881 34.7924 91.6869 34.7924ZM43.7077 13.9111C53.4687 13.9111 61.4291 21.8553 61.4291 31.6325V39.4061L60.4657 38.7895C60.1464 38.5748 59.7169 38.5748 59.3976 38.7895L58.5443 39.3235V31.6159C58.5443 23.435 51.8828 16.7738 43.7022 16.7738C35.5212 16.7738 28.8601 23.4354 28.8601 31.6159V39.3235L28.0068 38.7895C27.6875 38.5748 27.2581 38.5748 26.9388 38.7895L25.9753 39.4061V31.6325C25.9808 21.877 33.9247 13.9111 43.7077 13.9111ZM56.5407 40.4298L53.9587 38.8058C53.6394 38.5911 53.21 38.5911 52.8907 38.8058L50.1765 40.5124L47.4624 38.8058C47.1431 38.5911 46.7136 38.5911 46.3943 38.8058L43.6802 40.5346L40.966 38.8058C40.6467 38.5911 40.2173 38.5911 39.898 38.8058L37.1838 40.5124L34.4696 38.8058C34.1503 38.5911 33.7209 38.5911 33.4016 38.8058L30.8196 40.452V31.6544C30.8196 24.5855 36.5837 18.8214 43.6527 18.8214C50.7216 18.8214 56.4857 24.5854 56.4857 31.6544L56.4967 40.43L56.5407 40.4298ZM73.8985 123.967H13.3393C10.9664 123.967 9.04505 122.046 9.04505 119.673L9.05055 41.4588L10.7572 42.5489C11.0765 42.7636 11.5059 42.7636 11.8252 42.5489L14.5394 40.8201L17.2535 42.5489C17.5728 42.7636 18.0023 42.7636 18.3216 42.5489L21.0357 40.8201L23.7499 42.5489C24.0692 42.7636 24.4986 42.7636 24.8179 42.5489L27.5321 40.8423L30.2463 42.5489C30.5656 42.7636 30.995 42.7636 31.3143 42.5489L34.0285 40.8201L36.7426 42.5489C37.0619 42.7636 37.4914 42.7636 37.8107 42.5489L40.5248 40.8423L43.239 42.5489C43.5583 42.7636 43.9877 42.7636 44.307 42.5489L47.0212 40.8201L49.7354 42.5489C50.0547 42.7636 50.4841 42.7636 50.8034 42.5489L53.5176 40.8201L56.2317 42.5489C56.551 42.7636 56.9805 42.7636 57.2998 42.5489L60.0139 40.8423L62.7281 42.5489C63.0474 42.7636 63.4768 42.7636 63.7961 42.5489L66.5103 40.8201L69.2245 42.5489C69.5438 42.7636 69.9732 42.7636 70.2925 42.5489L73.0067 40.8201L75.7208 42.5489C76.0402 42.7636 76.4696 42.7636 76.7889 42.5489L78.4955 41.4588V119.679C78.4955 122.052 76.5741 123.973 74.2013 123.973L73.8985 123.967ZM78.6606 123.967C79.7067 122.833 80.3672 121.341 80.3672 119.673V109.378H130.252V120.78C130.252 122.53 128.821 123.962 127.07 123.962L78.6606 123.967Z"></path>
<path d="M5.95087 123.968H5.73617C5.18013 123.968 4.73419 124.414 4.73419 124.97C4.73419 125.526 5.18013 125.972 5.73617 125.972H5.95087C6.50691 125.972 6.95285 125.526 6.95285 124.97C6.95285 124.419 6.50691 123.968 5.95087 123.968Z"></path>
<path d="M62.4746 76.9907C61.9846 77.0567 61.6213 77.4806 61.6213 77.9706C61.6213 84.7587 56.0718 90.2916 49.2783 90.2916C42.4682 90.2916 36.9353 84.7587 36.9353 77.9486C36.9353 77.3926 36.4893 76.9467 35.9333 76.9467C35.3773 76.9467 34.9313 77.3926 34.9313 77.9486C34.9313 85.8489 41.3616 92.2791 49.2618 92.2791C55.1361 92.2791 60.1734 88.7337 62.3921 83.6742C62.304 93.9251 53.9358 102.233 43.6855 102.233C33.374 102.233 24.9564 93.8427 24.9564 83.5037C24.9564 73.2306 33.2639 64.8845 43.5149 64.7971C41.489 65.6945 39.6722 67.0377 38.2188 68.7884C37.8775 69.2178 37.9215 69.8344 38.3454 70.1978C38.7749 70.5611 39.3915 70.4951 39.7548 70.0712C42.1056 67.2304 45.563 65.6063 49.2351 65.6063C49.7251 65.6063 50.1545 65.2429 50.215 64.7529C50.2811 64.263 49.9783 63.7895 49.5103 63.6409C47.6331 63.0848 45.6676 62.8096 43.6582 62.8096C32.2346 62.8096 22.9475 72.097 22.9475 83.5203C22.9475 94.9435 32.235 104.231 43.6582 104.231C55.0815 104.231 64.3689 94.9435 64.3689 83.5203C64.3689 81.5108 64.0937 79.5509 63.5376 77.6681C63.4385 77.2277 62.9646 76.9246 62.4746 76.9907Z"></path>
<path d="M49.0251 70.2412C48.6397 70.2412 48.2984 70.4559 48.1277 70.7973L46.6138 73.8748L43.2169 74.3647C42.8315 74.4308 42.5342 74.684 42.4076 75.0474C42.303 75.4107 42.3856 75.7961 42.6664 76.0714L45.1218 78.4607L44.5437 81.8354C44.4776 82.2208 44.6318 82.5842 44.9511 82.8154C45.2484 83.0301 45.6558 83.0741 45.9971 82.9035L49.0305 81.3014L52.0639 82.9035C52.2125 82.9915 52.3612 83.0081 52.5318 83.0081C52.7466 83.0081 52.9392 82.942 53.1099 82.8154C53.4072 82.6007 53.5779 82.2153 53.5173 81.8354L52.9392 78.4607L55.3946 76.0714C55.6699 75.8126 55.758 75.4107 55.6534 75.0474C55.5268 74.684 55.224 74.4308 54.8441 74.3647L51.4472 73.8748L49.9333 70.7973C49.7516 70.4559 49.405 70.2412 49.0251 70.2412ZM50.6436 75.7741L52.543 76.0494L51.1557 77.3927C50.9189 77.6294 50.8143 77.9487 50.8804 78.268L51.1997 80.1674L49.4931 79.2701C49.3445 79.182 49.1958 79.1655 49.0251 79.1655C48.8765 79.1655 48.7058 79.2095 48.5572 79.2701L46.8506 80.1674L47.1699 78.268C47.236 77.9487 47.1258 77.6074 46.8946 77.3927L45.5073 76.0494L47.4067 75.7741C47.726 75.7301 48.0068 75.5154 48.1554 75.2181L49.0087 73.4893L49.8621 75.2181C50.0272 75.5154 50.3023 75.7081 50.6436 75.7741Z"></path>
<path d="M14.2151 76.7101C13.659 76.7101 13.2131 77.156 13.2131 77.7121V79.1214C13.2131 79.6775 13.659 80.1234 14.2151 80.1234C14.7711 80.1234 15.217 79.6775 15.217 79.1214V77.7121C15.2225 77.1615 14.7711 76.7101 14.2151 76.7101Z"></path>
<path d="M14.2151 58.0685C13.659 58.0685 13.2131 58.5144 13.2131 59.0705V73.1867C13.2131 73.7428 13.659 74.1887 14.2151 74.1887C14.7711 74.1887 15.217 73.7428 15.217 73.1867V59.0705C15.2225 58.5199 14.7711 58.0685 14.2151 58.0685Z"></path>
<path d="M81.3306 20.7638H102.108C105.014 20.7638 107.404 18.501 107.552 15.6163C107.596 14.9777 107.574 14.3336 107.486 13.6949C106.908 9.31814 103.324 5.72875 98.942 5.15063C94.6258 4.57256 90.4638 6.83525 88.6085 10.6835C84.997 11.0028 81.925 13.5684 80.9835 17.1138L80.3449 19.5031C80.2568 19.8004 80.3229 20.1197 80.5155 20.3564C80.7358 20.6152 81.0333 20.7638 81.3306 20.7638ZM82.9326 17.6257C83.6813 14.7849 86.2414 12.781 89.1702 12.6709C90.475 12.7149 91.7302 13.1388 92.8202 13.9096C92.9909 14.0362 93.2056 14.1023 93.3983 14.1023C93.7176 14.1023 94.0149 13.9536 94.2076 13.6949C94.5269 13.249 94.4223 12.6269 93.9708 12.3076C93.0074 11.6249 91.9229 11.1569 90.7887 10.8982C92.4349 8.22813 95.5069 6.73617 98.689 7.16011C102.168 7.62806 105.053 10.5129 105.499 13.9923C105.565 14.5043 105.587 15.0163 105.565 15.5282C105.461 17.3451 103.963 18.7764 102.108 18.7764H82.6134L82.9326 17.6257Z"></path>
<path d="M19.9624 23.7094C19.9844 23.2414 19.9844 22.768 19.9183 22.3C19.4669 19.0133 16.8628 16.4093 13.5761 15.9798C10.438 15.5504 7.40465 17.1745 5.99528 19.9327C3.39119 20.23 1.16706 22.1128 0.484358 24.6948L0.0384188 26.4014C-0.0496669 26.6987 0.016399 27.018 0.20908 27.2547C0.401769 27.4915 0.699062 27.6401 1.00185 27.6401H15.7777C18.0183 27.6401 19.8302 25.9336 19.9624 23.7094ZM2.42837 25.2068C2.91836 23.3074 4.63052 21.9586 6.5684 21.898C7.44375 21.9421 8.27501 22.2174 8.97969 22.7294C9.15035 22.856 9.36507 22.922 9.55776 22.922C9.87707 22.922 10.1744 22.7734 10.367 22.5146C10.6864 22.0687 10.5818 21.4466 10.1303 21.1273C9.53024 20.6979 8.86959 20.4006 8.18694 20.1859C9.33756 18.6058 11.2809 17.7085 13.2904 17.9837C15.6412 18.303 17.5846 20.2465 17.9038 22.5972C17.9479 22.9385 17.9699 23.2798 17.9479 23.6212V23.6432C17.8818 24.7938 16.9459 25.6691 15.7899 25.6691L2.30176 25.6747L2.42837 25.2068Z"></path>
</svg>