<svg xmlns="http://www.w3.org/2000/svg" width="30" height="30" class="icon icon-quran" viewBox="0 0 30 30" fill="none">
<path d="M29.5656 17.8599V2.24924C29.5656 2.04428 29.4002 1.87882 29.1953 1.87882C28.9904 1.87882 28.8249 2.04428 28.8249 2.24924V17.8611C28.8249 18.113 28.6643 18.3401 28.4273 18.4241L14.7823 23.2649L1.13722 18.4241C0.900216 18.3401 0.73968 18.113 0.73968 17.8611V2.55803C0.73968 2.50616 0.76934 2.47781 0.787873 2.46541C0.805065 2.4531 0.842134 2.43332 0.891507 2.45061L1.59532 2.70002V16.3476C1.59532 16.497 1.68416 16.6315 1.82251 16.6883C1.86939 16.7081 1.91746 16.718 1.96568 16.718C2.06065 16.718 2.15451 16.6809 2.22496 16.6117L3.97065 14.8957L14.4117 18.4735V20.2266L3.76074 16.5758C3.56693 16.5091 3.35585 16.6128 3.29039 16.8054C3.22368 16.998 3.3274 17.2103 3.52001 17.2758L14.6612 21.0932C14.7007 21.1068 14.7402 21.113 14.7821 21.113C14.8229 21.113 14.8637 21.1055 14.9032 21.0932L27.7308 16.6968C27.916 16.6338 28.0172 16.4387 27.9691 16.2523V2.24699C27.9691 2.14824 27.9296 2.05194 27.858 1.98279L25.9493 0.106122L25.9468 0.10368C25.9344 0.0913243 25.9197 0.0790168 25.9048 0.0691039C25.9024 0.0666615 25.8987 0.0654158 25.895 0.0629256C25.8913 0.0604833 25.8876 0.0579935 25.8826 0.0555511C25.8641 0.0444409 25.8456 0.0333306 25.8258 0.0259078C25.8246 0.0259078 25.8233 0.0259081 25.8209 0.0247109C25.8023 0.0172881 25.7826 0.0123552 25.7641 0.0074227C25.7591 0.0074227 25.7554 0.00498062 25.7516 0.00498062C25.7319 0.00124529 25.711 0 25.69 0H25.6776C25.6578 0 25.6381 0.00249011 25.6196 0.00617754C25.6171 0.00617754 25.6146 0.00617798 25.6122 0.0073752C25.5974 0.00986542 25.5826 0.0147977 25.5677 0.0197303L14.7821 3.71607L3.99392 0.0197303C3.97907 0.0147977 3.96433 0.00981753 3.94954 0.0073752H3.94329C3.92351 0.00368777 3.90379 0.00244237 3.88411 0.00124515H3.87296C3.85198 0.00124515 3.83095 0.00368733 3.81122 0.00617754C3.80629 0.00617754 3.80381 0.00862036 3.79888 0.00862036C3.77915 0.0135529 3.7594 0.018533 3.73963 0.0259078C3.73838 0.0259078 3.73715 0.0259079 3.736 0.027153C3.71617 0.0345757 3.69764 0.044441 3.67911 0.0567963C3.67547 0.0592386 3.67177 0.0617284 3.66679 0.0641708C3.66425 0.066661 3.66056 0.0679067 3.65692 0.070349C3.64203 0.0802141 3.62848 0.0925694 3.61492 0.104925C3.61368 0.106122 3.61244 0.107414 3.61244 0.107414L1.72725 1.96306L1.13956 1.75316C0.877796 1.66054 0.587699 1.7013 0.361808 1.86057C0.134624 2.0211 0 2.28156 0 2.55937V17.8612C0 18.4267 0.358054 18.9329 0.891343 19.123L8.5546 21.8416L0.65833 25.3268C0.482961 25.4034 0.369361 25.5787 0.369361 25.7688V26.1737C0.369361 26.5243 0.72868 26.7577 1.04838 26.6157L1.87437 26.2515C2.19417 26.1108 2.55342 26.3453 2.55342 26.6935V27.491C2.55342 27.6836 2.43989 27.8565 2.26452 27.933L0.658377 28.6441C0.483008 28.7207 0.369407 28.896 0.369407 29.0861V29.5158C0.369407 29.8664 0.728726 30.0998 1.04843 29.9578L14.5873 23.9797L14.6564 24.0044C14.6959 24.0192 14.7379 24.0266 14.7799 24.0266C14.8219 24.0266 14.8639 24.0192 14.9034 24.0044L14.9725 23.9797L28.5113 29.9578C28.8311 30.0985 29.1903 29.8639 29.1903 29.5158V29.0861C29.1903 28.8935 29.0768 28.7207 28.9015 28.6441L27.294 27.9355C27.1187 27.8589 27.0051 27.6836 27.0051 27.4935V26.696C27.0051 26.3465 27.3644 26.1119 27.6842 26.254L28.5101 26.6181C28.8299 26.7588 29.1892 26.5243 29.1892 26.1762V25.7712C29.1892 25.5787 29.0756 25.4058 28.9003 25.3293L21.0111 21.8402L28.6743 19.1216C29.2075 18.9328 29.5656 18.4253 29.5656 17.8599ZM25.5939 14.8943L26.9151 16.1931L15.1528 20.2255V18.4724L25.5939 14.8943ZM27.2286 15.4635L26.0607 14.3153L26.0619 1.25435L27.2299 2.40253L27.2286 15.4635ZM4.24367 0.888911L10.7488 3.11866V14.5512C10.7488 14.7538 10.9834 14.8673 11.1415 14.7402L11.5859 14.3846C11.6945 14.2982 11.8513 14.3204 11.9328 14.4315L12.3823 15.0525C12.5205 15.2426 12.8205 15.1464 12.8205 14.9105L12.8217 3.82875L14.4119 4.3732V16.1415C14.4119 16.3464 14.5773 16.5119 14.7823 16.5119C14.9872 16.5119 15.1527 16.3464 15.1527 16.1415V4.3732L25.321 0.889295V14.2059L14.7822 17.8185L4.24346 14.2072L4.24367 0.888911ZM2.33612 2.40253L3.50406 1.25435V14.3153L2.33612 15.4635V2.40253Z" fill="url(#paint0_linear_2450_1110)"></path>
<defs>
<linearGradient id="paint0_linear_2450_1110" x1="14.7828" y1="0" x2="14.7828" y2="30" gradientUnits="userSpaceOnUse">
<stop stop-color="#D9A559"></stop>
<stop offset="1" stop-color="#6D3816"></stop>
</linearGradient>
</defs>
</svg>