<svg xmlns="http://www.w3.org/2000/svg" width="125" height="127" class="icon icon-customisable line-path" stroke="#DEA85F" viewBox="0 0 125 127" fill="none">
<circle opacity="0.8" cx="40.851" cy="41.2874" r="40.851" fill="white" stroke="white"></circle>
<path d="M123.383 12.865H63.1461C62.6257 12.865 62.1877 13.2823 62.1877 13.8233V25.2359C62.1877 25.7563 62.6051 26.1943 63.1461 26.1943C63.6871 26.1943 64.1044 25.7769 64.1044 25.2359V25.0556C65.6451 29.2135 68.0615 33.0522 71.2972 36.2879C75.6716 40.6828 81.1487 43.5631 87.1044 44.7636V57.4953V57.5159V57.5365V57.5571C87.1456 60.9371 89.8816 63.673 93.2822 63.673C96.6622 63.673 99.3981 60.9371 99.4394 57.5571V57.5365V57.5159V57.4953V44.7842C110.074 42.6254 118.746 35.0513 122.44 25.0609V99.4472L118.942 93.4291C118.762 93.1303 118.463 92.95 118.123 92.95H83.6528C83.1324 92.95 82.6944 93.3673 82.6944 93.9083C82.6944 94.4493 83.1118 94.8667 83.6528 94.8667H117.545L121.724 102.023H86.1879C85.6675 102.023 85.2296 102.441 85.2296 102.982C85.2296 103.523 85.6469 103.94 86.1879 103.94H123.378C123.496 103.94 123.599 103.92 123.697 103.878C123.718 103.858 123.759 103.858 123.78 103.837C123.8 103.816 123.821 103.816 123.862 103.796C123.903 103.775 123.924 103.734 123.945 103.713C124.006 103.672 124.042 103.631 124.084 103.574C124.125 103.533 124.166 103.476 124.182 103.435C124.223 103.373 124.243 103.337 124.264 103.275C124.285 103.214 124.305 103.157 124.305 103.075C124.305 103.033 124.326 102.992 124.326 102.956L124.321 14.3242V13.8245C124.341 13.3092 123.919 12.865 123.383 12.865ZM97.5238 53.1572C96.4057 52.0958 94.9063 51.4363 93.2678 51.4363C91.6293 51.4363 90.13 52.0958 89.0326 53.1572V39.3286C89.0326 36.9894 90.9493 35.0726 93.2885 35.0726C94.4272 35.0726 95.4887 35.5106 96.2872 36.3298C97.0858 37.1284 97.5238 38.1899 97.5238 39.3284V53.1572ZM93.2627 61.7514C90.9235 61.7514 89.0274 59.8553 89.0067 57.5368C89.048 55.2182 90.9441 53.3581 93.242 53.3581C95.5606 53.3581 97.4567 55.2388 97.4979 57.5368C97.5031 59.8708 95.6019 61.7514 93.2627 61.7514ZM99.4405 42.8261V39.3482C99.4405 37.6891 98.8016 36.1485 97.6422 34.9892C96.4829 33.8299 94.9218 33.1704 93.2833 33.1704C89.8878 33.1704 87.1055 35.9269 87.1055 39.3482V42.8261C81.6697 41.6668 76.6718 38.9669 72.6582 34.9531C67.2637 29.5378 64.2443 22.4018 64.1257 14.7865H122.441C122.204 28.5334 112.41 40.0073 99.4405 42.8261Z"></path>
<path d="M59.8895 23.0412C59.7504 22.5414 59.23 22.2426 58.7096 22.3817L0.693672 38.5859C0.19388 38.725 -0.104958 39.266 0.0341598 39.7658L24.0193 125.621C24.0811 125.863 24.2614 126.08 24.4779 126.198C24.617 126.281 24.7767 126.317 24.9364 126.317C25.0189 126.317 25.1168 126.296 25.194 126.275L83.21 110.066C83.7098 109.927 84.0086 109.386 83.8695 108.886L59.8895 23.0412ZM58.3077 24.4787L70.1378 66.8061L51.3364 107.139C51.1149 107.618 51.3158 108.18 51.795 108.417C52.2742 108.639 52.8358 108.438 53.0728 107.958L70.9205 69.6448L73.9605 80.537L57.8539 115.131L15.6807 88.6728L2.1304 40.1683L58.3077 24.4787ZM53.5108 116.388L45.8543 118.526L19.3921 101.941L16.5531 91.7702L16.4552 91.4096L55.4482 115.873L53.5108 116.388ZM20.1593 104.677L43.3807 119.227L25.6148 124.184L20.1593 104.677ZM60.2511 114.513L74.7603 83.3561L81.7728 108.499L60.2511 114.513Z"></path>
<path d="M37.966 77.4759C46.8178 77.4759 54.0159 70.2832 54.0159 61.426C54.0159 59.8854 53.7943 58.3501 53.3564 56.8919C53.2172 56.4333 52.7793 56.15 52.295 56.2118C51.8158 56.2736 51.4757 56.691 51.4757 57.1495C51.4757 62.2453 47.3178 66.3827 42.222 66.3827C37.1262 66.3827 32.9682 62.2247 32.9682 57.129C32.9682 56.6086 32.5509 56.1706 32.0099 56.1706C31.4895 56.1706 31.0515 56.588 31.0515 57.129C31.0515 63.2862 36.07 68.2995 42.2221 68.2995C46.4573 68.2995 50.1568 65.9191 52.0529 62.4258C51.5325 69.7422 45.3959 75.5336 37.9605 75.5336C30.1648 75.5336 23.8324 69.196 23.8324 61.4055C23.8324 53.95 29.6288 47.8341 36.9402 47.313C35.7036 47.9932 34.5803 48.8897 33.6426 50.013C33.3026 50.4149 33.3644 51.0331 33.7611 51.3526C34.163 51.6926 34.7607 51.6308 35.1007 51.2341C36.8577 49.1164 39.4597 47.8746 42.2162 47.8746C42.6954 47.8746 43.0973 47.514 43.154 47.0554C43.2158 46.5762 42.9324 46.1383 42.4738 45.994C41.0415 45.6024 39.5215 45.3809 37.9654 45.3809C29.1136 45.3809 21.9155 52.5736 21.9155 61.4307C21.9155 70.2826 29.1296 77.4759 37.966 77.4759Z"></path>
<path d="M115.228 83.9735C115.228 84.4939 115.645 84.9319 116.186 84.9319C116.727 84.9319 117.144 84.5145 117.144 83.9735V79.9753C117.144 79.4549 116.727 79.017 116.186 79.017C115.645 79.017 115.228 79.4343 115.228 79.9753V83.9735Z"></path>
<path d="M116.185 76.2189C116.706 76.2189 117.144 75.8016 117.144 75.2606V58.7319C117.144 58.2115 116.726 57.7736 116.185 57.7736C115.644 57.7736 115.227 58.1909 115.227 58.7319V75.2606C115.227 75.8016 115.65 76.2189 116.185 76.2189Z"></path>
<path d="M48.7343 48.3599L48.1366 51.8583C48.0748 52.219 48.2191 52.5797 48.5179 52.7961C48.8167 53.0176 49.198 53.0382 49.5175 52.8785L52.6553 51.2194L55.7931 52.8785C55.9322 52.9609 56.0919 52.9764 56.2311 52.9764C56.432 52.9764 56.633 52.9146 56.7927 52.7961C57.0915 52.5745 57.2306 52.219 57.174 51.8583L56.5763 48.3599L59.1165 45.8816C59.3741 45.6239 59.4771 45.2426 59.3586 44.9026C59.2401 44.5625 58.9413 44.3049 58.5806 44.2431L55.0614 43.7227L53.4848 40.5436C53.3251 40.2241 52.985 40.0026 52.6244 40.0026C52.2637 40.0026 51.9236 40.2035 51.7639 40.5436L50.1873 43.7227L46.6681 44.2431C46.3075 44.3049 46.0086 44.5419 45.8901 44.9026C45.7716 45.2426 45.8695 45.6239 46.1323 45.8816L48.7343 48.3599ZM51.0169 45.5621C51.3363 45.5209 51.5939 45.3199 51.7382 45.0417L52.676 43.1456L53.6137 45.0417C53.7528 45.3199 54.0156 45.5209 54.335 45.5621L56.432 45.8609L54.9121 47.3397C54.6906 47.5612 54.5927 47.8807 54.6339 48.1795L54.9946 50.2765L53.1139 49.2976C52.9748 49.2151 52.8151 49.1997 52.6759 49.1997C52.5162 49.1997 52.3771 49.2409 52.238 49.3182L50.3573 50.2971L50.718 48.2001C50.7798 47.8807 50.6562 47.5819 50.4398 47.3603L48.9199 45.8815L51.0169 45.5621Z"></path>
<path d="M9.68483 17.6821H32.9682C36.1266 17.6821 38.7441 15.2244 38.9038 12.0865C38.9451 11.3858 38.9244 10.6696 38.8214 9.96884C38.1825 5.15138 34.2254 1.1736 29.4079 0.534793C24.611 -0.104115 19.9944 2.41546 17.9386 6.728C13.9404 7.04746 10.5037 9.88641 9.46284 13.8023L8.74665 16.4609C8.66421 16.7392 8.72604 17.0586 8.90637 17.2802C9.10731 17.543 9.38599 17.6821 9.68483 17.6821ZM11.3027 14.2661C12.1838 11.0097 15.1001 8.71182 18.4389 8.60867C19.9383 8.6705 21.3964 9.14968 22.6176 10.0256C22.7773 10.1441 22.9783 10.2059 23.1792 10.2059C23.478 10.2059 23.7769 10.0668 23.9572 9.80401C24.2561 9.38665 24.1582 8.78382 23.7357 8.46441C22.6176 7.66578 21.3552 7.12481 20.0208 6.8672C21.8601 3.72938 25.436 1.93115 29.1355 2.41035C33.1131 2.95136 36.3901 6.22827 36.9105 10.206C36.9929 10.7831 37.0084 11.3653 36.9723 11.9424V11.963C36.8538 14.1013 35.0916 15.7604 32.9534 15.7604L10.927 15.7655L11.3027 14.2661Z"></path>
<path d="M108.174 108.757C104.155 108.216 100.301 110.318 98.5387 113.894C95.2 114.192 92.3249 116.593 91.4643 119.87L90.8873 122.106C90.8048 122.385 90.8667 122.704 91.047 122.926C91.2273 123.168 91.5056 123.307 91.8044 123.307H111.111C113.811 123.307 116.047 121.21 116.186 118.51C116.227 117.912 116.207 117.31 116.124 116.732C115.568 112.652 112.229 109.313 108.174 108.757ZM114.269 118.387C114.187 120.066 112.79 121.385 111.09 121.385H93.0259L93.3042 120.365C94.0049 117.748 96.3596 115.867 99.0595 115.79C100.281 115.831 101.44 116.228 102.439 116.928C102.599 117.047 102.8 117.109 103.001 117.109C103.3 117.109 103.599 116.969 103.779 116.707C104.078 116.289 103.98 115.687 103.558 115.367C102.676 114.728 101.677 114.306 100.641 114.069C102.161 111.632 105 110.251 107.937 110.653C111.152 111.091 113.811 113.749 114.254 116.99C114.29 117.449 114.31 117.928 114.269 118.387Z"></path>
</svg>