<svg xmlns="http://www.w3.org/2000/svg" width="126" height="127" class="icon icon-faith line-path" stroke="#DEA85F" viewBox="0 0 126 127" fill="none">
<circle opacity="0.8" cx="40.851" cy="41.2874" r="40.851" fill="white" stroke="white"></circle>
<path d="M1.71576 124.379H0.958349C0.417339 124.379 0 124.816 0 125.337C0 125.878 0.437955 126.295 0.958349 126.295H1.71576C2.25677 126.295 2.67411 125.857 2.67411 125.337C2.69472 124.816 2.25676 124.379 1.71576 124.379Z"></path>
<path d="M104.481 124.378H84.5569C93.4912 118.845 103.28 117.984 114.416 121.761C114.735 121.859 115.075 121.802 115.333 121.601C115.59 121.4 115.735 121.06 115.693 120.741L113.138 99.7182C113.076 99.2596 112.721 98.9196 112.277 98.8783C111.479 98.7959 110.701 98.7392 109.918 98.698C112.076 95.3799 117.11 87.7285 119.213 84.8483C125.148 76.7332 125.488 69.0411 120.274 61.3063L115.915 54.4536L116.894 48.2964C116.935 48.0388 116.956 47.776 116.956 47.4566C116.956 45.3596 115.776 43.4789 113.88 42.5618C112.143 41.7219 110.144 41.8817 108.583 42.9019L103.405 34.7455C103.585 33.0865 103.606 31.4068 103.467 29.7116C103.127 25.7545 101.849 21.7769 99.69 17.8816C95.7329 10.7661 88.8597 6.76773 81.3424 7.19022C73.5107 7.60757 66.6116 12.5487 62.6189 20.4992C58.5999 12.5439 51.7266 7.62839 43.8742 7.19022C36.362 6.78832 29.4837 10.7867 25.5266 17.8816C22.3115 23.678 21.1109 29.6549 21.889 35.4312L17.3703 42.5466C15.8091 41.5265 13.7946 41.3667 12.0736 42.2066C10.1775 43.1237 8.99768 45.0044 8.99768 47.1013C8.99768 47.4002 9.01829 47.6784 9.05951 47.9412L10.0385 54.0984L5.70007 60.9357C0.398261 68.6592 0.738305 76.3524 6.67388 84.4671C8.85331 87.4452 14.1861 95.5963 16.1852 98.6769C15.3248 98.7181 14.4643 98.7748 13.609 98.8572C13.1505 98.8985 12.7898 99.2591 12.7486 99.6971L10.2136 120.739C10.1723 121.08 10.3115 121.399 10.5742 121.6C10.8319 121.821 11.1719 121.878 11.4914 121.76C22.6206 117.983 32.4361 118.843 41.3501 124.377H5.59797C5.05696 124.377 4.63962 124.815 4.63962 125.335C4.63962 125.876 5.07757 126.294 5.59797 126.294H51.1663C51.7073 126.294 52.1246 125.856 52.1246 125.335C52.1246 124.794 51.6867 124.377 51.1663 124.377H45.612L46.931 113.047C46.9722 112.789 46.8898 112.527 46.7095 112.326C45.8902 111.347 45.0504 110.43 44.1899 109.548C47.369 98.2183 43.6282 86.327 33.0606 74.1775L37.1568 64.2642C37.2187 64.1045 37.2393 63.9448 37.2187 63.785L39.1148 59.2303C39.2127 59.2922 39.2951 59.3488 39.393 59.4107C48.2242 65.0268 55.5814 70.844 61.8982 77.1964C62.0785 77.3767 62.3155 77.4746 62.5783 77.4746C62.8359 77.4746 63.0781 77.3767 63.2584 77.1964C69.5753 70.8434 76.9274 65.0263 85.7636 59.4107C86.0212 59.2509 86.2634 59.0706 86.5055 58.9109L92.9409 74.42C82.3887 86.492 78.5912 98.322 81.6313 109.617C80.7915 110.477 79.9723 111.374 79.1942 112.317C79.0344 112.518 78.952 112.775 78.9726 113.038L80.2916 124.368L56.1984 124.358C55.6574 124.358 55.24 124.796 55.24 125.316C55.24 125.857 55.678 126.275 56.1984 126.275H104.481C105.022 126.275 105.44 125.837 105.44 125.316C105.44 124.816 105.022 124.378 104.481 124.378ZM43.7437 123.621C37.7257 119.545 31.3727 117.505 24.4992 117.505C20.604 117.505 16.5439 118.165 12.3085 119.463L14.5859 100.718C26.8951 99.6982 37.1069 103.918 44.9644 113.249L43.7437 123.621ZM42.5896 107.968C35.876 101.832 27.8231 98.6939 18.5069 98.6166C17.5073 97.0554 10.8349 86.8278 8.25356 83.3093C2.77658 75.8331 2.45712 69.0572 7.2746 61.9622L10.4537 56.9437L12.9733 72.8129C13.0557 73.3333 13.5504 73.694 14.0708 73.6115C14.5912 73.5291 14.9518 73.0344 14.8694 72.5141L11.7522 52.7907V52.8113L10.9329 47.6177C10.9123 47.4373 10.8917 47.257 10.8917 47.0766C10.8917 45.7165 11.6491 44.521 12.8702 43.9182C14.2098 43.2587 15.8278 43.5576 16.8685 44.6396C17.0076 44.7993 17.2085 44.8611 17.4095 44.8972C17.3476 44.9796 17.327 45.0775 17.2704 45.1394C17.4301 45.3815 17.5692 45.6185 17.6722 45.8813L22.7475 60.2521C24.4271 64.6471 27.0859 69.3255 30.9038 74.5397C30.8832 74.9416 31.1047 75.3177 31.4808 75.4775C31.5427 75.4981 31.62 75.5187 31.7024 75.5187C41.5281 86.885 45.1038 97.5189 42.5896 107.968ZM31.6149 72.2358C28.3585 67.6398 26.0399 63.4819 24.5612 59.5866L19.486 45.237C19.3056 44.7372 19.0686 44.2993 18.7646 43.8768L22.4022 38.1628C23.0824 40.94 24.2416 43.6605 25.8595 46.2778L24.4786 48.6943C24.221 49.1529 24.3807 49.7557 24.8393 50.0133C24.999 50.0957 25.1588 50.1318 25.3185 50.1318C25.6585 50.1318 25.978 49.9515 26.1583 49.6526L27.06 48.076C27.8792 49.2353 28.7964 50.3534 29.7959 51.456L26.72 57.17C26.4623 57.6492 26.6375 58.2314 27.1219 58.489C27.261 58.5715 27.4207 58.6075 27.5804 58.6075C27.9205 58.6075 28.2605 58.4272 28.4409 58.0872L31.2181 52.9089C31.96 53.6509 32.738 54.3671 33.5572 55.0678L28.6212 64.3421C28.3636 64.8213 28.5387 65.4035 29.0231 65.6611C29.1622 65.7436 29.3219 65.7796 29.4816 65.7796C29.8217 65.7796 30.1618 65.5993 30.3421 65.2592L35.0978 56.325C35.8759 56.9432 36.6745 57.5461 37.4937 58.1232L31.6149 72.2358ZM84.7359 57.7674C76.1004 63.2651 68.8457 68.9586 62.5698 75.1364C56.3147 68.9431 49.0603 63.2651 40.4036 57.7674C35.3697 54.5678 31.3713 50.8942 28.4912 46.8339C22.298 38.08 21.8342 28.3887 27.1722 18.8152C30.5882 12.658 36.3848 9.0823 42.7789 9.0823C43.0983 9.0823 43.3972 9.0823 43.7166 9.10291C51.4092 9.52026 58.1283 14.7809 61.6619 23.1531C61.8216 23.5138 62.1617 23.7508 62.5636 23.7508C62.9449 23.7508 63.3055 23.5087 63.4653 23.1531C67.005 14.7804 73.7186 9.525 81.4106 9.10291C88.1654 8.72163 94.3586 12.3593 97.9604 18.8153C100.001 22.4735 101.175 26.1884 101.516 29.8878C102.458 40.3627 96.5022 50.2707 84.7336 57.768L84.7359 57.7674ZM90.6304 55.9074L95.6076 65.259C95.7879 65.5784 96.128 65.7794 96.468 65.7794C96.6278 65.7794 96.7669 65.7382 96.9266 65.6609C97.4058 65.4032 97.5861 64.821 97.3285 64.3418L92.1503 54.6295C92.9695 53.9081 93.7269 53.1713 94.4689 52.4293L97.5088 58.0868C97.6892 58.4062 98.0086 58.6072 98.3693 58.6072C98.529 58.6072 98.6887 58.5659 98.8278 58.4887C99.307 58.231 99.4668 57.6488 99.2297 57.1696L95.8703 50.9351C96.8493 49.8171 97.751 48.6784 98.5495 47.4984L99.7861 49.6367C99.9664 49.9562 100.286 50.1159 100.626 50.1159C100.786 50.1159 100.945 50.0746 101.105 49.9974C101.564 49.7397 101.723 49.1369 101.466 48.6783L99.7294 45.659C101.249 43.0828 102.326 40.3829 102.945 37.6057L107.159 44.2626C106.86 44.68 106.618 45.1231 106.438 45.6228L101.383 59.9514C99.9046 63.8466 97.5655 68.0047 94.3296 72.6213L90.5529 63.5065L90.5323 63.4859L88.1724 57.7925C89.0123 57.1845 89.8317 56.5463 90.6304 55.9074ZM94.7884 75.2337C94.809 75.2131 94.809 75.2131 94.809 75.1925L94.8502 75.1513C98.7454 69.834 101.466 65.0783 103.182 60.6011L108.257 46.2515C108.355 45.9526 108.535 45.6744 108.715 45.391C108.695 45.3292 108.674 45.2725 108.654 45.2107C108.793 45.1695 108.932 45.0922 109.035 44.9685C110.076 43.8916 111.694 43.6083 113.033 44.2472C114.254 44.8448 115.012 46.0454 115.012 47.4056C115.012 47.5859 115.012 47.7662 114.97 47.9466L113.93 54.4798V54.5004L111.013 72.9048C110.931 73.4252 111.292 73.9249 111.812 74.0022C112.332 74.0847 112.832 73.724 112.909 73.2036L115.429 57.3344L118.629 62.3684C123.426 69.4427 123.106 76.2181 117.629 83.6943C115.213 86.9919 109.174 96.2662 107.618 98.6204C98.1633 98.641 89.992 101.8 83.2162 108.034C80.7997 97.4971 84.5969 86.7435 94.7884 75.2337ZM107.716 100.573C107.973 100.692 108.236 100.671 108.494 100.573C109.432 100.594 110.375 100.635 111.333 100.713L113.61 119.457C101.899 115.861 91.5891 117.221 82.1752 123.615L80.9747 113.243C88.0129 104.829 97.004 100.594 107.716 100.573Z"></path>
<path d="M120.052 124.379H108.361C107.82 124.379 107.403 124.816 107.403 125.337C107.403 125.878 107.841 126.295 108.361 126.295H120.052C120.593 126.295 121.01 125.857 121.01 125.337C121.031 124.816 120.588 124.379 120.052 124.379Z"></path>
<path d="M124.947 124.379H124.447C123.906 124.379 123.488 124.816 123.488 125.337C123.488 125.878 123.926 126.295 124.447 126.295H124.947C125.488 126.295 125.905 125.857 125.905 125.337C125.905 124.816 125.467 124.379 124.947 124.379Z"></path>
<path d="M31.9144 25.1522C32.0329 25.214 32.172 25.2346 32.3163 25.2346C32.6976 25.2346 33.0376 25.0131 33.1974 24.6575C33.4962 23.998 33.8157 23.3385 34.1969 22.679C34.4546 22.2204 34.2948 21.6176 33.8157 21.36C33.3571 21.1024 32.7543 21.2621 32.4966 21.7413C32.0948 22.442 31.7392 23.1582 31.4198 23.8795C31.1982 24.369 31.4146 24.9512 31.9144 25.1522Z"></path>
<path d="M31.5387 31.4637C31.5593 30.9227 31.1368 30.4847 30.6009 30.4641C30.0599 30.4435 29.622 30.866 29.6014 31.4019C29.4623 35.4981 30.7607 39.5169 33.4606 43.3349C33.6409 43.5925 33.9398 43.7368 34.2592 43.7368C34.4601 43.7368 34.6405 43.675 34.8208 43.5565C35.2588 43.2576 35.3618 42.6393 35.063 42.1963C32.595 38.739 31.4151 35.1219 31.5387 31.4637Z"></path>
<path d="M103.621 10.561C103.863 10.561 104.12 10.4631 104.301 10.2827L107.98 6.60385C108.361 6.22258 108.361 5.60429 107.98 5.22297C107.598 4.84169 106.98 4.84169 106.599 5.22297L102.92 8.90186C102.538 9.28313 102.538 9.90143 102.92 10.2827C103.121 10.4631 103.384 10.561 103.621 10.561Z"></path>
<path d="M105.661 12.6017C105.661 13.1427 106.099 13.56 106.62 13.56H111.813C112.354 13.56 112.772 13.1221 112.772 12.6017C112.772 12.0606 112.334 11.6433 111.813 11.6433H106.62C106.099 11.6433 105.661 12.0813 105.661 12.6017Z"></path>
<path d="M100.626 7.54676C101.167 7.54676 101.585 7.1088 101.585 6.58841V1.39475C101.585 0.853741 101.147 0.436401 100.626 0.436401C100.085 0.436401 99.6681 0.874357 99.6681 1.39475V6.58841C99.6423 7.12426 100.085 7.54676 100.626 7.54676Z"></path>
<path d="M109.84 4.34703C110.082 4.34703 110.34 4.24914 110.52 4.0688L111.36 3.20835C111.741 2.82707 111.741 2.20878 111.36 1.82746C110.978 1.44618 110.36 1.44618 109.979 1.82746L109.139 2.68791C108.758 3.06919 108.758 3.68748 109.139 4.0688C109.34 4.2646 109.598 4.34703 109.84 4.34703Z"></path>
</svg>