<svg xmlns="http://www.w3.org/2000/svg" fill="none" viewBox="0 0 12 20" height="20" width="12">
<path fill="#A4722C" d="M11.9986 10.2204C11.9855 9.82352 11.827 9.44529 11.5532 9.1576L3.77974 1.06016C3.48176 0.750104 3.07282 0.571115 2.64287 0.562574C2.21292 0.554032 1.79719 0.716674 1.48713 1.01465C1.17708 1.31263 0.998091 1.72155 0.989551 2.15149C0.981011 2.58144 1.14362 2.99718 1.4416 3.30723L8.13208 10.2811L1.44159 17.255C1.14361 17.5651 0.98101 17.9808 0.98955 18.4108C0.99809 18.8407 1.17708 19.2497 1.48713 19.5476C1.79719 19.8456 2.21292 20.0082 2.64287 19.9997C3.07281 19.9911 3.48176 19.8121 3.77974 19.5021L11.5532 11.4047C11.7031 11.2473 11.8198 11.0613 11.8963 10.8578C11.9729 10.6544 12.0076 10.4376 11.9986 10.2204Z"></path>
</svg>
